<svg width="29" height="33" viewBox="0 0 29 33" fill="none" xmlns="http://www.w3.org/2000/svg">
<path d="M27.1021 13.6927L21.646 10.5417L14.1708 16.1269L21.6459 21.7122L27.1205 18.5504C27.9741 18.0318 28.4835 17.1256 28.4835 16.1271C28.4835 15.1286 27.9741 14.2224 27.1021 13.6927Z" fill="#FF9100"/>
<path d="M16.0641 16.127C16.0559 16.1376 9.45483 24.6247 9.44947 24.6316L0.850452 31.4037C0.321219 30.8745 0 30.1564 0 29.3625V2.84467C0 2.05098 0.321219 1.33276 0.850452 0.80365L9.44947 7.62251C9.45483 7.62938 16.0559 16.1165 16.0641 16.127Z" fill="#25D9F8"/>
<path d="M16.0607 16.1271L14.1708 18.565V13.689L16.0607 16.1271Z" fill="#00C0F1"/>
<path d="M21.6578 10.5329L16.0636 16.1271L0.849976 0.803743C1.0389 0.63359 1.22795 0.501297 1.43584 0.369004C2.34293 -0.141204 3.42023 -0.122368 4.30854 0.425764L14.1737 6.22402L21.6578 10.5329Z" fill="#7FE881"/>
<path d="M21.6549 10.5329L16.0607 16.127L14.1708 14.2372V6.224L21.6549 10.5329Z" fill="#5BC980"/>
<path d="M21.6578 21.7211L14.1737 26.0301L4.28965 31.8006C3.83607 32.0651 3.3447 32.2163 2.83436 32.2163C2.36189 32.2163 1.88942 32.084 1.43584 31.8383C1.22795 31.706 1.0389 31.5738 0.849976 31.4037L16.0636 16.1271L21.6578 21.7211Z" fill="#FF637B"/>
<path d="M21.6549 21.7211L14.1708 26.0301V18.017L16.0607 16.1271L21.6549 21.7211Z" fill="#E63950"/>
</svg>
